<svg width="24" height="24" viewBox="0 0 24 24" fill="none" xmlns="http://www.w3.org/2000/svg">
<path d="M3 6H12.4444H20L19.5278 18.5806H14.3333L11.0278 21L7.72222 18.5806H3V6Z" fill="white" fill-opacity="0.2"/>
<path d="M12.0005 4.90476C12.2416 4.90476 12.4729 5.0051 12.6434 5.18371C12.8139 5.36231 12.9097 5.60456 12.9097 5.85714C12.9097 6.10973 12.8139 6.35197 12.6434 6.53058C12.4729 6.70918 12.2416 6.80952 12.0005 6.80952H4.72742C4.4863 6.80952 4.25506 6.90986 4.08456 7.08847C3.91406 7.26708 3.81828 7.50932 3.81828 7.7619V17.2857C3.81828 17.5383 3.91406 17.7805 4.08456 17.9591C4.25506 18.1378 4.4863 18.2381 4.72742 18.2381H8.0885C8.44767 18.238 8.79882 18.3494 9.09765 18.5581L11.0914 19.9505L13.0851 18.5581C13.384 18.3494 13.7351 18.238 14.0943 18.2381H17.4554C17.6965 18.2381 17.9277 18.1378 18.0982 17.9591C18.2687 17.7805 18.3645 17.5383 18.3645 17.2857V13.4762C18.3645 13.2236 18.4603 12.9814 18.6308 12.8028C18.8013 12.6241 19.0325 12.5238 19.2736 12.5238C19.5148 12.5238 19.746 12.6241 19.9165 12.8028C20.087 12.9814 20.1828 13.2236 20.1828 13.4762V17.2857C20.1828 18.0435 19.8954 18.7702 19.3839 19.306C18.8725 19.8418 18.1787 20.1429 17.4554 20.1429H14.0943L11.7214 21.8C11.3396 22.0667 10.8432 22.0667 10.4614 21.8L8.0885 20.1429H4.72742C4.00406 20.1429 3.31033 19.8418 2.79884 19.306C2.28735 18.7702 2 18.0435 2 17.2857V7.7619C2 7.00414 2.28735 6.27742 2.79884 5.7416C3.31033 5.20578 4.00406 4.90476 4.72742 4.90476H12.0005ZM7.9094 11.5714C8.27108 11.5714 8.61795 11.7219 8.87369 11.9898C9.12944 12.2578 9.27311 12.6211 9.27311 13C9.27311 13.3789 9.12944 13.7422 8.87369 14.0102C8.61795 14.2781 8.27108 14.4286 7.9094 14.4286C7.54773 14.4286 7.20086 14.2781 6.94512 14.0102C6.68937 13.7422 6.5457 13.3789 6.5457 13C6.5457 12.6211 6.68937 12.2578 6.94512 11.9898C7.20086 11.7219 7.54773 11.5714 7.9094 11.5714ZM14.2734 11.5714C14.6351 11.5714 14.9819 11.7219 15.2377 11.9898C15.4934 12.2578 15.6371 12.6211 15.6371 13C15.6371 13.3789 15.4934 13.7422 15.2377 14.0102C14.9819 14.2781 14.6351 14.4286 14.2734 14.4286C13.9117 14.4286 13.5648 14.2781 13.3091 14.0102C13.0533 13.7422 12.9097 13.3789 12.9097 13C12.9097 12.6211 13.0533 12.2578 13.3091 11.9898C13.5648 11.7219 13.9117 11.5714 14.2734 11.5714ZM18.3645 3C18.5541 3.00008 18.739 3.06228 18.8932 3.1779C19.0475 3.29351 19.1633 3.45675 19.2246 3.64476L19.3427 4.00476C19.6155 4.84191 20.2428 5.5 21.0428 5.78571L21.3856 5.90857C21.5649 5.97293 21.7205 6.09436 21.8306 6.2559C21.9408 6.41744 22 6.611 22 6.80952C22 7.00805 21.9408 7.20161 21.8306 7.36315C21.7205 7.52469 21.5649 7.64612 21.3856 7.71048L21.0419 7.83429C20.2428 8.12 19.6146 8.77714 19.3418 9.61524L19.2246 9.97429C19.1631 10.1621 19.0472 10.3251 18.893 10.4405C18.7388 10.5559 18.554 10.6179 18.3645 10.6179C18.175 10.6179 17.9902 10.5559 17.836 10.4405C17.6818 10.3251 17.5659 10.1621 17.5045 9.97429L17.3863 9.61429C17.2516 9.20109 17.0284 8.82571 16.7337 8.51698C16.439 8.20825 16.0806 7.97438 15.6862 7.83333L15.3434 7.71048C15.1642 7.64612 15.0086 7.52469 14.8984 7.36315C14.7882 7.20161 14.729 7.00805 14.729 6.80952C14.729 6.611 14.7882 6.41744 14.8984 6.2559C15.0086 6.09436 15.1642 5.97293 15.3434 5.90857L15.6871 5.78476C16.4862 5.49905 17.1144 4.8419 17.3872 4.00381L17.5045 3.64476L17.5608 3.50571C17.6383 3.35289 17.754 3.22506 17.8956 3.13597C18.0372 3.04687 18.1993 2.99986 18.3645 3ZM18.3645 6.04381C18.1494 6.32733 17.9042 6.58423 17.6336 6.80952C17.9057 7.03492 18.1493 7.28984 18.3645 7.57429C18.5803 7.29048 18.8236 7.03556 19.0945 6.80952C18.8242 6.58418 18.5793 6.32728 18.3645 6.04381Z" fill="white"/>
</svg>
